<?xml version="1.0" encoding="utf-8"?>
<!-- Generator: Adobe Illustrator 20.1.0, SVG Export Plug-In . SVG Version: 6.00 Build 0)  -->
<svg version="1.1"
	 id="svg2" xmlns:cc="http://creativecommons.org/ns#" xmlns:dc="http://purl.org/dc/elements/1.1/" xmlns:rdf="http://www.w3.org/1999/02/22-rdf-syntax-ns#" xmlns:svg="http://www.w3.org/2000/svg"
	 xmlns="http://www.w3.org/2000/svg" xmlns:xlink="http://www.w3.org/1999/xlink" x="0px" y="0px" viewBox="0 0 1250 1250"
	 style="enable-background:new 0 0 1250 1250;" xml:space="preserve">
<style type="text/css">
	.st0{clip-path:url(#SVGID_2_);}
	.st1{fill:#7B3188;}
</style>
<g id="g10" transform="matrix(1.25,0,0,-1.25,0,1250)">
	<g id="g12">
		<g>
			<defs>
				<rect id="SVGID_1_" x="-125" y="-125" width="1250" height="1250"/>
			</defs>
			<clipPath id="SVGID_2_">
				<use xlink:href="#SVGID_1_"  style="overflow:visible;"/>
			</clipPath>
			<g id="g14" class="st0">
				<g id="g20" transform="translate(694.8557,387.5)">
					<path id="path22" class="st1" d="M0,0c-10.1-17.4-22.1-33-35.7-46.6l-159,159l-0.1,0.1l0-0.2l58.2-217.2
						c18.9,5.1,37.2,12.6,54.3,22.4L30.2-277.3c-66.2-38.3-143.1-60.2-225-60.2c-166.5,0-312,90.5-389.8,225L-389.7,0
						c-10.1,17.4-17.5,35.7-22.5,54.3l217.2,58.2l0.2,0l-0.2,0l-217.2,58.2c-5.1-18.9-7.7-38.5-7.7-58.2h-225
						c0,248.5,201.5,450,450,450v-225c20.1,0,39.7-2.7,58.2-7.6l-58.2-217.2l0-0.2l0.1,0.1l159,159c-13.9,13.9-29.5,25.9-46.6,35.8
						L30.2,502.3c134.5-77.8,225-223.2,225-389.8c0-82-21.9-158.8-60.2-225L0,0z M-194.9,612.5c-276.1,0-500-223.9-500-500
						s223.9-500,500-500c276.1,0,500,223.9,500,500S81.3,612.5-194.9,612.5"/>
				</g>
			</g>
		</g>
	</g>
</g>
</svg>
