<?xml version="1.0" encoding="utf-8"?>
<!-- Generator: Adobe Illustrator 21.0.2, SVG Export Plug-In . SVG Version: 6.00 Build 0)  -->
<svg version="1.1" id="Layer_1" xmlns="http://www.w3.org/2000/svg" xmlns:xlink="http://www.w3.org/1999/xlink" x="0px" y="0px"
	 viewBox="0 0 72 72" style="enable-background:new 0 0 72 72;" xml:space="preserve">
<style type="text/css">
	.st0{fill:none;}
	.st1{fill:#939598;stroke:#944B9D;stroke-miterlimit:10;}
	.st2{fill:#FFFFFF;}
	.st3{fill:none;stroke:#944B9D;stroke-miterlimit:10;}
	.st4{fill:#FFFFFF;stroke:#662D91;stroke-miterlimit:10;}
</style>
<circle class="st0" cx="36" cy="36" r="36"/>
<circle class="st1" cx="36" cy="36" r="30.7"/>
<g>
	<g>
		<g>
			<path class="st2" d="M36,14.5c-11.9,0-21.5,9.6-21.5,21.5S24.1,57.5,36,57.5c11.9,0,21.5-9.6,21.5-21.5S47.9,14.5,36,14.5
				 M44.4,40.8c-0.4,0.7-1,1.4-1.5,2L36,36l0,0l0,0l2.5,9.3c0.8-0.2,1.6-0.5,2.3-1l4.8,8.4c-2.8,1.6-6.1,2.6-9.7,2.6
				c-7.2,0-13.4-3.9-16.8-9.7l8.4-4.8c-0.4-0.7-0.8-1.5-1-2.3L36,36l0,0l0,0l-9.3-2.5c-0.2,0.8-0.3,1.7-0.3,2.5h-9.7
				c0-10.7,8.7-19.3,19.3-19.3v9.7c0.9,0,1.7,0.1,2.5,0.3L36,36l0,0l0,0l6.8-6.8c-0.6-0.6-1.3-1.1-2-1.5l4.8-8.4
				c5.8,3.3,9.7,9.6,9.7,16.8c0,3.5-0.9,6.8-2.6,9.7L44.4,40.8z"/>
		</g>
	</g>
</g>
<circle class="st3" cx="36" cy="36" r="28.3"/>
<circle class="st4" cx="36" cy="6.3" r="5.8"/>
</svg>
